<?xml version="1.0" standalone="no"?>
<!DOCTYPE svg PUBLIC "-//W3C//DTD SVG 20010904//EN"
 "http://www.w3.org/TR/2001/REC-SVG-20010904/DTD/svg10.dtd">
<svg version="1.0" xmlns="http://www.w3.org/2000/svg"
 width="300.000000pt" height="90.000000pt" viewBox="0 0 300.000000 90.000000"
 preserveAspectRatio="xMidYMid meet">
<metadata>
Created by potrace 1.10, written by Peter Selinger 2001-2011
</metadata>
<g transform="translate(0.000000,90.000000) scale(0.100000,-0.100000)"
fill="#429465" stroke="none">
<path d="M1336 660 c-54 -16 -96 -54 -124 -110 -23 -47 -27 -67 -26 -140 1
-169 78 -250 238 -250 72 0 128 27 163 79 31 45 29 57 -9 77 -31 16 -33 16
-43 -2 -5 -10 -22 -31 -37 -46 -23 -24 -34 -28 -81 -28 -95 0 -137 55 -137
180 1 106 52 170 135 170 44 0 73 -14 101 -47 21 -24 22 -24 52 -9 46 24 47
33 5 75 -55 55 -152 76 -237 51z"/>
<path d="M102 573 c10 -48 36 -160 56 -248 l37 -160 52 -3 c60 -3 52 -17 103
188 17 69 35 129 39 133 5 5 18 -29 31 -75 12 -46 32 -119 44 -163 l22 -80 54
0 54 0 52 230 c29 127 53 238 53 248 1 15 -6 18 -41 15 l-43 -3 -31 -145 c-40
-189 -43 -202 -53 -196 -4 3 -27 82 -51 176 l-44 170 -42 0 -42 0 -42 -172
c-24 -95 -45 -175 -46 -177 -10 -11 -19 20 -53 176 l-36 168 -46 3 -47 3 20
-88z"/>
<path d="M894 540 c-83 -19 -128 -86 -129 -190 0 -124 65 -190 187 -190 64 0
108 17 132 52 21 30 21 31 -13 51 -27 16 -29 16 -46 -3 -45 -50 -147 -30 -163
32 l-8 33 125 5 c142 6 139 4 126 87 -9 63 -52 109 -116 122 -55 12 -51 12
-95 1z m101 -85 c14 -13 25 -33 25 -45 0 -18 -6 -20 -80 -20 -66 0 -80 3 -80
16 0 65 88 97 135 49z"/>
<path d="M1789 541 c-40 -8 -101 -41 -106 -57 -2 -6 5 -21 15 -33 l18 -23 36
22 c45 26 115 25 132 -3 16 -27 -19 -51 -95 -66 -84 -17 -119 -51 -119 -116 0
-38 5 -52 29 -76 24 -24 38 -29 76 -29 49 0 82 13 102 39 10 14 14 12 37 -12
21 -23 33 -28 64 -25 33 3 37 6 40 33 2 23 -2 32 -20 40 -22 9 -23 17 -28 131
-5 122 -12 144 -49 163 -26 14 -93 20 -132 12z m98 -238 c-7 -69 -55 -101
-108 -73 -21 12 -27 74 -8 86 11 6 95 31 113 33 5 1 6 -20 3 -46z"/>
<path d="M2502 538 c-115 -26 -167 -180 -100 -300 52 -92 235 -108 292 -26 22
30 20 35 -13 52 -26 14 -30 14 -46 -4 -45 -50 -147 -28 -163 34 l-8 31 125 5
126 5 -1 56 c-2 92 -44 141 -129 152 -22 3 -59 1 -83 -5z m102 -79 c15 -12 26
-30 26 -45 0 -23 -2 -24 -80 -24 -70 0 -80 2 -80 18 1 34 46 71 86 72 12 0 33
-9 48 -21z"/>
<path d="M2100 349 l0 -190 43 3 42 3 2 100 c1 55 2 110 2 123 1 38 44 72 89
72 37 0 40 2 45 33 6 43 2 47 -43 47 -37 0 -80 -28 -80 -52 0 -4 -4 -8 -10 -8
-5 0 -10 14 -10 30 0 28 -2 30 -40 30 l-40 0 0 -191z"/>
</g>
</svg>
